<svg version="1.2" xmlns="http://www.w3.org/2000/svg" viewBox="0 0 3100 1272" width="3100" height="1272">
	<style>
		.s0 { fill: #313131 } 
		.s1 { fill: #2aa7f9 } 
	</style>
	<g>
	</g>
	<g>
	</g>
	<g>
	</g>
	<g>
	</g>
	<g>
	</g>
	<g>
	</g>
	<g>
		<path class="s0" d="m518.5 949.8c-22.2-1.7-46-6.5-64.1-12.9-12.1-4.2-29.9-13.6-41.4-21.7-9.2-6.6-31-26.9-31-29 0-0.8 48-58.4 53.5-64.1 1.1-1.1 2.8 0.1 10.5 7.6 26 25.7 52.7 36.5 93.5 38 13.9 0.5 18.6 0.3 25.5-1.1 34.2-7 61.3-32.2 70-65.2 2.7-10.2 4.2-24.6 3.8-35.9l-0.3-9-5.6 8c-6.5 9.2-19.6 22.2-28.8 28.4-11.9 8.1-25 12.9-43.1 15.6-12.4 1.9-40.6 1.9-53 0-49.7-7.6-93.3-38.2-118.8-83.4-17.5-30.9-25.5-64.8-23.9-101.6 3.9-86.3 59.1-153.4 138.2-168.1 14.2-2.7 46.9-2.7 61 0 25.1 4.7 41.3 13.2 57.2 29.9 3.8 4.1 9.4 11 12.4 15.5l5.4 8.2 0.3-23.5 0.2-23.5h44 44.1l-0.3 170.3-0.3 170.2-2.4 12.5c-6.5 35.1-20.6 62.6-44.1 86-38.3 38.4-92 54.5-162.5 48.8zm49.2-222.3c29.7-4.8 52.3-22.1 65.4-49.9 10.2-21.8 12.4-51 5.8-76.2-7-26.8-26.9-50.4-50.7-60-23-9.3-55.8-9.6-78.2-0.7-10.9 4.4-18.2 9.3-27 18.2-17.2 17.3-25.8 36.6-27.9 62.5-1.8 21.6 1.5 39.2 10.9 58.1 13.6 27.4 33.7 42.7 63.3 48 9.9 1.8 27.3 1.8 38.4 0z"/>
		<path class="s0" d="m923.5 816.4c-31-4.5-50.3-11.6-73.6-27.2-26.4-17.7-46.7-40.9-61.4-70.2-41.1-81.9-14.3-186.5 60.5-236.4 32.9-22 67.6-31 106.9-27.8 34.3 2.8 54.2 11.8 74.9 33.7 4.4 4.6 10.6 12.6 13.8 17.6l5.9 9.3 0.3-97.2 0.2-97.2h44.5 44.5v243.5 243.5h-43.5-43.5v-28.2-28.3l-4.5 7.9c-14.2 25-34.5 42.9-57.6 50.6-13.2 4.5-24.4 6.1-44.9 6.5-10.7 0.2-20.8 0.1-22.5-0.1zm59-83.1c27.7-7.9 49.2-26.1 61.1-51.7 6.5-14.3 8.6-23.4 9.1-41.1 0.6-18.2-0.8-28.2-5.7-41.7-5.9-16-13.6-27.5-26.8-39.9-12.1-11.3-24.1-17.6-40.8-21.6-11.8-2.7-38.8-2.5-49.9 0.5-33.2 9-58 34.7-67.6 70.2-3.2 11.6-3.7 36.4-1.1 49 8 38.7 37 69.4 73.2 77.5 9.8 2.2 39.1 1.4 48.5-1.2z"/>
		<path class="s0" d="m1704 816c-18.6-2.6-34.8-7.8-52-16.6-16.9-8.7-29.2-17.7-43.1-31.4-45.5-44.9-63.9-107.1-50.7-171.5 8.7-42.8 34.3-83.6 68.1-108.7 22.7-16.8 45.2-26.7 71.7-31.5 12.9-2.3 43.7-2.3 57.2 0 11.5 2 24.2 5.9 31.9 9.8 16.6 8.3 39 30.8 46 46.2 0.7 1.5 1.6 2.7 2.1 2.7 0.4 0 0.8-43.6 0.8-97v-97h44.5 44.5v243.5 243.5h-43.5-43.5l-0.2-28.2-0.3-28.3-2.9 5.5c-13.2 25.2-35.7 45.4-58.8 52.9-14.5 4.8-24.3 6.2-45.3 6.6-11 0.2-22.9 0-26.5-0.5zm65.5-83.4c34.5-10.4 58.9-37.8 66.5-74.6 1.9-9 2.1-12.7 1.7-25.5-1-28.7-9.7-50.2-28.2-69.1-14.9-15.2-30.2-23.4-50.2-26.9-44.8-7.8-85.8 12.1-104.9 51-23.3 47.6-8.6 105.6 33.8 133.8 17.3 11.5 29.7 14.8 54.8 14.3 15.6-0.3 18.5-0.6 26.5-3z"/>
		<path class="s0" d="m2122 815.9c-51.9-5.9-96.9-33.2-125-76.1-32.5-49.4-39.9-111.6-20-168.3 18.1-51.6 60.4-93.3 111.5-110 19.2-6.3 30.9-7.9 57-7.9 26.1 0 37.8 1.6 57 7.9 37.8 12.4 71 39.3 93.5 76 18.1 29.4 28.6 76.4 25 112-0.6 6.6-1.4 13.2-1.7 14.8l-0.5 2.7h-130-130l0.7 3.8c1.1 5.7 6.1 18 10.2 25.1 7.3 12.3 22.9 26.9 35.8 33.4 22.1 11 55 11.2 81.2 0.5 13.6-5.7 31.5-20.2 40-32.5 2-3 4.2-5.2 4.7-4.9 0.9 0.3 67.2 49.8 68.3 51 0.2 0.2-1.8 3.2-4.3 6.7-22.2 30.2-63.8 54.9-105.9 62.8-6 1.2-15 2.5-20 3.1-10.6 1.2-36.8 1.1-47.5-0.1zm108.4-220.1c-7.4-25.1-24.9-46.5-46.9-57.4-4.9-2.4-11.7-5.1-15-5.9-13.1-3.5-35-3.4-48 0-22.3 5.9-42.6 22.7-53.4 44.2-3.3 6.6-8.1 20.1-8.1 22.7 0 1.4 8.5 1.6 86.4 1.6h86.5z"/>
		<path class="s0" d="m1299.5 814.5c-40-7.4-70.1-28.3-88.9-61.9-8.1-14.5-13-28.7-16.8-48.1-2.1-10.8-2.1-13.4-2.5-126.7l-0.4-115.8h45 45l0.4 107.3c0.3 105.6 0.3 107.3 2.4 115.9 7.3 29.3 23.1 46.1 48.3 51.4 10.4 2.1 27.7 1.9 37.1-0.5 22.8-5.8 40-21.3 47.9-43 6-16.3 6-16.6 6-128.8v-102.3h45 45v173 173h-43.5-43.5l-0.2-25.7-0.3-25.8-3.4 6.5c-15.5 29.9-38.1 45.9-72.4 51.5-11.3 1.8-40.3 1.9-50.2 0z"/>
		<path class="s0" d="m2340.5 799.8c1.8-26.4 5.1-43.8 11.9-64.4 7.9-23.6 19.9-46.3 34.6-65.2 7.2-9.4 22.3-25.2 29.9-31.6l4.5-3.6-11.6-11c-20.3-19.3-33.1-36.7-45.8-62.5-14.6-29.4-20.8-54.1-23.4-91.7l-0.6-7.8h41.4 41.3l0.7 9.3c4.6 60.4 43 109.2 94.6 119.9 13.5 2.8 33.7 2.1 46.4-1.6 18.9-5.7 33.7-14.5 48.2-29 22.9-23.1 37-54.9 39.1-88.8l0.6-9.8h41.5 41.5l-0.7 11.3c-3.5 56.3-25.9 107.5-63.5 145.4-4.4 4.5-10.1 9.8-12.5 11.8l-4.5 3.6 14.3 14.2c7.9 7.8 17.7 18.7 21.7 24.2 27 36.5 41.6 77.5 44.5 124.3l0.7 11.2h-41.5-41.5l-0.6-10.7c-2.1-33.3-17.1-67-39.9-89.5-43.8-43.2-108.2-42-150.8 2.8-22.3 23.4-34.9 53.1-37.6 88.3l-0.7 9.1h-41.4-41.3z"/>
	</g>
	<g>
	</g>
	<g>
	</g>
	<g>
	</g>
	<g>
	</g>
	<g>
	</g>
	<g>
	</g>
	<g>
	</g>
	<g>
	</g>
	<g>
	</g>
	<g>
	</g>
	<g>
	</g>
	<g>
	</g>
	<g>
		<path class="s1" d="m2519 542.7c-12.2-3.7-19.6-8.2-29.1-17.7-9.5-9.4-13.4-15.6-17.5-27.5-2.5-7.1-2.8-9.4-2.8-20.5 0-10.8 0.4-13.6 2.7-20.5 12-36.3 49.8-56.2 85.4-45 27.7 8.7 46.7 33.3 48.1 62.1 1.4 30.8-16.2 56.9-46 68-6.3 2.3-9.1 2.8-20.3 3.1-11.3 0.3-14 0-20.5-2z"/>
	</g>
	<g>
	</g>
	<g>
	</g>
	<g>
	</g>
	<g>
	</g>
	<g>
	</g>
	<g>
	</g>
	<g>
	</g>
	<g>
	</g>
	<g>
	</g>
	<g>
	</g>
	<g>
	</g>
	<g>
	</g>
</svg>